<svg width="44" height="44" viewBox="0 0 44 44" fill="none" xmlns="http://www.w3.org/2000/svg">
<path d="M39.1195 43.3385C40.1724 43.4004 41.2079 43.0462 42.0076 42.3504C43.5847 40.7447 43.5847 38.1514 42.0076 36.5457L7.47279 1.5941C5.8324 0.0406032 3.25835 0.126961 1.72338 1.78715C0.335361 3.28845 0.254452 5.59598 1.53397 7.19299L36.2722 42.3504C37.0616 43.0361 38.0804 43.3897 39.1195 43.3385Z" fill="#27282D"/>
<path d="M4.6254 43.3385C5.69247 43.3339 6.7152 42.9052 7.47284 42.1446L42.0077 7.19287C43.4689 5.46599 43.2702 2.86711 41.564 1.38818C40.041 0.0682777 37.795 0.0682777 36.2723 1.38818L1.53402 36.3398C-0.105968 37.8937 -0.190762 40.499 1.34461 42.1587C1.40569 42.2248 1.46879 42.2886 1.53402 42.3504C2.38462 43.0991 3.50407 43.4568 4.6254 43.3385Z" fill="#27282D"/>
</svg>
