<svg width="16" height="16" viewBox="0 0 16 16" fill="none" xmlns="http://www.w3.org/2000/svg">
<path d="M0.5 11.0519V11.0518V4.9376C0.501982 3.76087 0.970733 2.6329 1.80356 1.80101C2.63643 0.969086 3.76544 0.501191 4.94302 0.5H11.057C12.2346 0.501191 13.3636 0.969086 14.1964 1.80101C15.0292 2.63285 15.498 3.76075 15.5 4.93741C15.5 4.9376 15.5 4.93779 15.5 4.93798L15.5 11.0518V11.0519C15.5004 12.2304 15.0326 13.3609 14.1995 14.195C13.3663 15.0291 12.2359 15.4985 11.0566 15.5H4.94342C3.7641 15.4985 2.63367 15.0291 1.80051 14.195C0.967359 13.3609 0.499623 12.2304 0.5 11.0519ZM4.94278 1.27637C3.97154 1.27637 3.04003 1.662 2.35318 2.34851C1.66633 3.03503 1.28041 3.96619 1.28041 4.93718V11.0518C1.28041 12.0227 1.66633 12.9539 2.35318 13.6404C3.04003 14.3269 3.97154 14.7126 4.94278 14.7126H11.0572C12.0285 14.7126 12.96 14.3269 13.6468 13.6404C14.3337 12.9539 14.7196 12.0227 14.7196 11.0518V4.93718C14.7196 3.96619 14.3337 3.03503 13.6468 2.34851C12.96 1.662 12.0285 1.27637 11.0572 1.27637H4.94278Z" stroke="#27282D"/>
<path d="M8 13C7.01109 13 6.0444 12.7068 5.22215 12.1573C4.39991 11.6079 3.75904 10.827 3.3806 9.91342C3.00217 8.99979 2.90315 7.99445 3.09608 7.02455C3.289 6.05465 3.76521 5.16373 4.46447 4.46447C5.16373 3.76521 6.05464 3.289 7.02455 3.09608C7.99445 2.90315 8.99979 3.00217 9.91342 3.3806C10.827 3.75904 11.6079 4.3999 12.1573 5.22215C12.7068 6.0444 13 7.0111 13 8C12.998 9.32546 12.4705 10.596 11.5333 11.5333C10.596 12.4705 9.32546 12.998 8 13ZM8 4.96249C7.39924 4.96249 6.81197 5.14064 6.31245 5.47441C5.81294 5.80817 5.42361 6.28257 5.19371 6.8376C4.96381 7.39263 4.90365 8.00337 5.02086 8.59259C5.13806 9.18181 5.42736 9.72304 5.85216 10.1478C6.27696 10.5726 6.81819 10.8619 7.40741 10.9791C7.99663 11.0963 8.60737 11.0362 9.16241 10.8063C9.71744 10.5764 10.1918 10.1871 10.5256 9.68755C10.8594 9.18803 11.0375 8.60076 11.0375 8C11.037 7.19456 10.7168 6.42226 10.1473 5.85272C9.57775 5.28319 8.80544 4.963 8 4.96249Z" fill="#27282D"/>
<path d="M12 5C12.5523 5 13 4.55229 13 4C13 3.44772 12.5523 3 12 3C11.4477 3 11 3.44772 11 4C11 4.55229 11.4477 5 12 5Z" fill="#27282D"/>
</svg>
