<svg width="56" height="56" viewBox="0 0 56 56" fill="none" xmlns="http://www.w3.org/2000/svg">
<path d="M1.5 38.6816V38.6812V17.2814C1.507 13.0965 3.17402 9.08509 6.13579 6.12667C9.0977 3.16812 13.1127 1.5042 17.3004 1.5H38.6996C42.8873 1.5042 46.9023 3.16812 49.8642 6.12667C52.8257 9.0848 54.4927 13.0957 54.5 17.2801C54.5 17.2809 54.5 17.2817 54.5 17.2825L54.5 38.6812V38.6816C54.5013 42.8727 52.838 46.8931 49.8751 49.8592C46.9122 52.8254 42.8922 54.4946 38.6984 54.5H17.3017C13.1078 54.4946 9.08781 52.8254 6.12492 49.8592C3.16205 46.8931 1.49866 42.8727 1.5 38.6816ZM17.2997 4.71731C13.9667 4.71731 10.7699 6.0407 8.41288 8.39661C6.05578 10.7525 4.73145 13.948 4.73145 17.2801V38.6812C4.73145 42.0133 6.05578 45.2087 8.41288 47.5647C10.7699 49.9206 13.9667 51.244 17.2997 51.244H38.7003C42.0333 51.244 45.2301 49.9206 47.5871 47.5647C49.9442 45.2087 51.2686 42.0133 51.2686 38.6812V17.2801C51.2686 13.948 49.9442 10.7525 47.5871 8.39661C45.2301 6.0407 42.0333 4.71731 38.7003 4.71731H17.2997Z" fill="white" stroke="white" stroke-width="3"/>
<path d="M28 45.5C24.5388 45.5 21.1554 44.4736 18.2775 42.5507C15.3997 40.6278 13.1567 37.8947 11.8321 34.697C10.5076 31.4993 10.161 27.9806 10.8363 24.5859C11.5115 21.1913 13.1782 18.0731 15.6256 15.6256C18.0731 13.1782 21.1913 11.5115 24.5859 10.8363C27.9806 10.161 31.4993 10.5076 34.697 11.8321C37.8947 13.1566 40.6278 15.3997 42.5507 18.2775C44.4736 21.1554 45.5 24.5388 45.5 28C45.4928 32.6391 43.6468 37.0861 40.3665 40.3665C37.0861 43.6468 32.6391 45.4928 28 45.5ZM28 17.3687C25.8973 17.3687 23.8419 17.9922 22.0936 19.1604C20.3453 20.3286 18.9826 21.989 18.178 23.9316C17.3733 25.8742 17.1628 28.0118 17.573 30.0741C17.9832 32.1363 18.9957 34.0306 20.4826 35.5175C21.9694 37.0043 23.8637 38.0168 25.9259 38.427C27.9882 38.8372 30.1258 38.6267 32.0684 37.822C34.011 37.0174 35.6714 35.6547 36.8396 33.9064C38.0078 32.1581 38.6313 30.1027 38.6313 28C38.6295 25.181 37.5088 22.4779 35.5155 20.4845C33.5221 18.4912 30.819 17.3705 28 17.3687Z" fill="white"/>
<path d="M42 17.5C43.933 17.5 45.5 15.933 45.5 14C45.5 12.067 43.933 10.5 42 10.5C40.067 10.5 38.5 12.067 38.5 14C38.5 15.933 40.067 17.5 42 17.5Z" fill="white"/>
</svg>
