<svg width="57" height="56" viewBox="0 0 57 56" fill="none" xmlns="http://www.w3.org/2000/svg">
<path d="M11 21H0.5V56H11V21Z" fill="white"/>
<path d="M25 21.0458H34.2995V25.902C34.2995 25.902 35.7288 21 44.3231 21C51.4252 21 56.5 23.8693 56.5 31.7516V56H46.5709C46.5709 56 46.6212 35.6078 46.6779 34.9804C46.7346 34.3529 46.1301 29.2092 41.068 29.2092C36.0058 29.2092 34.4066 33.0065 34.4066 35.8366V56H25V21.0458Z" fill="white"/>
<path d="M5.75 10.5C8.6495 10.5 11 8.1495 11 5.25C11 2.3505 8.6495 0 5.75 0C2.8505 0 0.5 2.3505 0.5 5.25C0.5 8.1495 2.8505 10.5 5.75 10.5Z" fill="white"/>
</svg>
