<svg width="33" height="32" viewBox="0 0 33 32" fill="none" xmlns="http://www.w3.org/2000/svg">
<path d="M6.46875 12H0.46875V32H6.46875V12Z" fill="#27282D"/>
<path d="M14.4688 12.0261H19.7828V14.8011C19.7828 14.8011 20.5995 12 25.5105 12C29.5689 12 32.4688 13.6396 32.4688 18.1438V32H26.795C26.795 32 26.8237 20.3473 26.8561 19.9888C26.8885 19.6303 26.5431 16.6909 23.6504 16.6909C20.7578 16.6909 19.8439 18.8609 19.8439 20.4781V32H14.4688V12.0261Z" fill="#27282D"/>
<path d="M3.46875 6C5.1256 6 6.46875 4.65685 6.46875 3C6.46875 1.34315 5.1256 0 3.46875 0C1.8119 0 0.46875 1.34315 0.46875 3C0.46875 4.65685 1.8119 6 3.46875 6Z" fill="#27282D"/>
</svg>
